<svg id="Component_22_4" data-name="Component 22 – 4" xmlns="http://www.w3.org/2000/svg" width="36.141" height="26.909" viewBox="0 0 36.141 26.909">
  <g id="Icon_4" data-name="Icon 4" transform="translate(-1483.859 -23)">
    <path id="Path_154" data-name="Path 154" d="M33.158,19.915a9.019,9.019,0,0,0-18.036,0c-4.059,0-4.072-.005-4.072-.005l2.671,16.1a1.083,1.083,0,0,0,1.063.9H33.491a1.074,1.074,0,0,0,1.063-.9l2.614-16.1Zm-9.021-6.758A6.866,6.866,0,0,1,31,19.91H17.279A6.866,6.866,0,0,1,24.137,13.157Zm8.444,21.594H15.7l-2.157-12.68H34.734Z" transform="translate(1472.81 13)" fill="#f5a81b"/>
    <path id="Path_155" data-name="Path 155" d="M151.579,271.057h8.994a1.079,1.079,0,1,0,0-2.157h-8.994a1.079,1.079,0,1,0,0,2.157Z" transform="translate(1340.868 -231.263)" fill="#f5a81b"/>
    <path id="Path_156" data-name="Path 156" d="M151.579,373.057h8.994a1.079,1.079,0,0,0,0-2.157h-8.994a1.079,1.079,0,0,0,0,2.157Z" transform="translate(1340.868 -327.87)" fill="#f5a81b"/>
  </g>
  <g id="Товары_в_корзине" data-name="Товары в корзине" transform="translate(-1398.859 -93)">
    <circle id="Ellipse_22" data-name="Ellipse 22" cx="4.5" cy="4.5" r="4.5" transform="translate(1426 93)" fill="#f5a81b"/>
    <path id="Path_157" data-name="Path 157" d="M.92,2.429H.086V1.957H.92V1.116h.472v.841h.834v.472H1.392v.83H.92ZM4.752,1.3a.742.742,0,0,1-.179.5.927.927,0,0,1-.5.285V2.1a1,1,0,0,1,.578.232.649.649,0,0,1,.2.5.842.842,0,0,1-.33.708,1.52,1.52,0,0,1-.942.253,2.287,2.287,0,0,1-.91-.17V3.054a2.056,2.056,0,0,0,.4.151,1.7,1.7,0,0,0,.435.058.847.847,0,0,0,.487-.112.411.411,0,0,0,.157-.36.325.325,0,0,0-.181-.315,1.339,1.339,0,0,0-.578-.093H3.148V1.873h.244a1.133,1.133,0,0,0,.536-.1A.346.346,0,0,0,4.1,1.448q0-.358-.448-.358a1.026,1.026,0,0,0-.316.052,1.542,1.542,0,0,0-.357.179L2.668.862A1.713,1.713,0,0,1,3.7.552a1.328,1.328,0,0,1,.773.2A.636.636,0,0,1,4.752,1.3Z" transform="translate(1428 95.016)" fill="#fff"/>
  </g>
</svg>
