<svg id="Group_2407" data-name="Group 2407" xmlns="http://www.w3.org/2000/svg" width="20.284" height="20.122" viewBox="0 0 20.284 20.122">
  <path id="Path_154" data-name="Path 154" d="M28.22,17.924a7,7,0,0,0-14.008,0c-3.153,0-3.163,0-3.163,0l2.074,12.5a.841.841,0,0,0,.825.7H28.479a.834.834,0,0,0,.825-.7l2.03-12.5Zm-7.006-5.248A5.332,5.332,0,0,1,26.54,17.92H15.888A5.332,5.332,0,0,1,21.214,12.675Zm6.558,16.771H14.66L12.985,19.6H29.444Z" transform="translate(-11.05 -11)" fill="#f5a81b"/>
  <path id="Path_155" data-name="Path 155" d="M151.338,270.575h6.985a.838.838,0,1,0,0-1.675h-6.985a.838.838,0,1,0,0,1.675Z" transform="translate(-144.668 -258.309)" fill="#f5a81b"/>
  <path id="Path_156" data-name="Path 156" d="M151.338,372.576h6.985a.838.838,0,0,0,0-1.675h-6.985a.838.838,0,0,0,0,1.675Z" transform="translate(-144.668 -356.12)" fill="#f5a81b"/>
</svg>
