<svg id="Icon_1" data-name="Icon 1" xmlns="http://www.w3.org/2000/svg" width="26.909" height="26.909" viewBox="0 0 26.909 26.909">
  <g id="Group_2433" data-name="Group 2433">
    <g id="Group_2432" data-name="Group 2432">
      <path id="Path_166" data-name="Path 166" d="M6.307,10.669H4.23a9.252,9.252,0,0,1,17.9-2.526A1.051,1.051,0,1,0,24.1,7.414a11.353,11.353,0,0,0-22,3.82A4.206,4.206,0,0,0,0,14.874v3.574a4.209,4.209,0,0,0,4.2,4.2h2.1A1.051,1.051,0,0,0,7.358,21.6V11.72A1.051,1.051,0,0,0,6.307,10.669ZM5.256,20.55H4.2a2.1,2.1,0,0,1-2.1-2.1V14.874a2.1,2.1,0,0,1,2.1-2.1H5.256Z" fill="#f5a81b"/>
      <path id="Path_167" data-name="Path 167" d="M227.352,203h-2.1a1.051,1.051,0,0,0-1.051,1.051v10.984a1.052,1.052,0,0,1-1.051,1.051h-3.206v.033a2.1,2.1,0,1,0,0,2.036v.033h3.206a3.157,3.157,0,0,0,3.153-3.153v-.053h1.051a4.209,4.209,0,0,0,4.2-4.2V207.2A4.209,4.209,0,0,0,227.352,203Zm2.1,7.778a2.1,2.1,0,0,1-2.1,2.1H226.3V205.1h1.051a2.1,2.1,0,0,1,2.1,2.1Z" transform="translate(-204.648 -192.331)" fill="#f5a81b"/>
    </g>
  </g>
</svg>
