<svg xmlns="http://www.w3.org/2000/svg" width="30.185" height="26.156" viewBox="0 0 30.185 26.156">
  <g id="Icon_3" data-name="Icon 3" transform="translate(0 -29.992)">
    <path id="Path_158" data-name="Path 158" d="M15.093,56.148s-.624-.27-12.728-12.374A8.073,8.073,0,0,1,13.782,32.357l1.31,1.31,1.31-1.31A8.073,8.073,0,1,1,27.82,43.774l-2.039,2.039C15.717,55.878,15.093,56.148,15.093,56.148ZM8.073,32.434A5.632,5.632,0,0,0,4.089,42.05l11,11,11-11a5.634,5.634,0,1,0-7.968-7.968l-2.173,2.173-.862.91-.862-.91-2.173-2.173a5.617,5.617,0,0,0-3.984-1.648Z" fill="#f5a81b"/>
  </g>
</svg>
