<svg id="Group_2297" data-name="Group 2297" xmlns="http://www.w3.org/2000/svg" width="28.139" height="36.354" viewBox="0 0 28.139 36.354">
  <path id="Path_131" data-name="Path 131" d="M558.838,209.2l-5.144-5.145V195.2a3.2,3.2,0,0,0-3.2-3.2H536.582a3.2,3.2,0,0,0-3.2,3.2v29.963a3.2,3.2,0,0,0,3.2,3.2h21.727a1.065,1.065,0,0,0,1.044-.855l1.985-9.88a9.278,9.278,0,0,0-2.5-8.418Zm-22.256-15.07H550.5a1.066,1.066,0,0,1,1.065,1.065v13.738a3.337,3.337,0,0,0-4.711,4.728l4.08,4.241a9.045,9.045,0,0,0-2.853,3.707H535.517V195.2a1.066,1.066,0,0,1,1.065-1.065Zm-1.065,31.029v-1.42h11.874a15.193,15.193,0,0,0-.341,2.485H536.582a1.066,1.066,0,0,1-1.065-1.065Zm23.732-7.96-1.813,9.025h-8.252a9.772,9.772,0,0,1,1.906-5.526,5.4,5.4,0,0,1,1.917-1.572,1.054,1.054,0,0,0,.388-1.734l-5.029-5.229a1.207,1.207,0,0,1,1.7-1.71c2.251,2.3,1.157,1.2,5.1,5.138a1.065,1.065,0,0,0,1.506-1.506l-2.98-2.98v-4.036l3.638,3.639a7.152,7.152,0,0,1,1.917,6.492Zm0,0" transform="translate(-533.387 -192)" fill="#8c97ac"/>
</svg>
