<svg xmlns="http://www.w3.org/2000/svg" width="16.637" height="14.961" viewBox="0 0 16.637 14.961">
  <path id="Path_118" data-name="Path 118" d="M34.083,46.523,49.976,40.46c.454-.173.449.2.346.693S47.681,54.4,47.508,54.967a.589.589,0,0,1-1.039.173c-.26-.3-3.724-3.421-3.724-3.421s-1.867,1.71-2.122,1.948c-.541.507-.95-.313-1.213-1.169l-1.126-3.681-4.33-1.646C33.55,47.011,33.8,46.616,34.083,46.523ZM39.1,48.5l8.313-5.369-6.885,6.582-.26,2.512L39.1,48.5Z" transform="translate(-33.742 -40.417)" fill="#373435" fill-rule="evenodd"/>
</svg>
