<svg xmlns="http://www.w3.org/2000/svg" width="21.238" height="25.909" viewBox="0 0 21.238 25.909">
  <g id="Icon_2" data-name="Icon 2" transform="translate(-37.167)">
    <path id="Path_152" data-name="Path 152" d="M109.951,12.9A6.451,6.451,0,1,0,103.5,6.451,6.458,6.458,0,0,0,109.951,12.9Zm0-10.389a3.938,3.938,0,1,1-3.938,3.938A3.942,3.942,0,0,1,109.951,2.513Z" transform="translate(-62.165)" fill="#f5a81b"/>
    <path id="Path_153" data-name="Path 153" d="M47.786,223.333a10.631,10.631,0,0,0-10.619,10.619v1.257H58.405v-1.257A10.631,10.631,0,0,0,47.786,223.333ZM39.778,232.7a8.107,8.107,0,0,1,16.017,0Z" transform="translate(0 -209.3)" fill="#f5a81b"/>
  </g>
</svg>
