<svg xmlns="http://www.w3.org/2000/svg" width="14.538" height="13.881" viewBox="0 0 14.538 13.881">
  <path id="Path_164" data-name="Path 164" d="M14.518,16.257a.406.406,0,0,0-.325-.275l-4.536-.645-2.041-4.1a.4.4,0,0,0-.361-.224h0a.4.4,0,0,0-.361.227L4.88,15.353l-4.536.674A.406.406,0,0,0,.02,16.3a.4.4,0,0,0,.1.412L3.415,19.9l-.761,4.518a.405.405,0,0,0,.4.471.383.383,0,0,0,.188-.048L7.288,22.7l4.061,2.122a.412.412,0,0,0,.185.045h0a.4.4,0,0,0,.4-.4.315.315,0,0,0-.012-.093l-.785-4.491,3.27-3.208A.4.4,0,0,0,14.518,16.257Zm-4.088,3.2a.4.4,0,0,0-.113.358L11,23.728,7.473,21.887a.408.408,0,0,0-.376,0L3.582,23.749l.659-3.924a.4.4,0,0,0-.116-.355L1.273,16.7l3.936-.585a.4.4,0,0,0,.3-.221l1.749-3.572,1.772,3.563a.41.41,0,0,0,.3.221l3.939.561Z" transform="translate(0 -11.011)" fill="#f5a81b"/>
</svg>
