<svg xmlns="http://www.w3.org/2000/svg" width="18.981" height="18.695" viewBox="0 0 18.981 18.695">
  <path id="Path_8" data-name="Path 8" d="M38.418,34.49H47.6a4.913,4.913,0,0,1,4.9,4.9v8.9a4.912,4.912,0,0,1-4.9,4.9H38.418a4.912,4.912,0,0,1-4.9-4.9v-8.9A4.912,4.912,0,0,1,38.418,34.49Zm9.4,3.238a1.1,1.1,0,1,1-1.1,1.1A1.1,1.1,0,0,1,47.814,37.728Zm-4.8,1.135a4.975,4.975,0,1,1-4.975,4.975A4.974,4.974,0,0,1,43.01,38.863Zm0,1.62a3.355,3.355,0,1,1-3.355,3.355A3.355,3.355,0,0,1,43.01,40.483Zm-3.8-4.36h7.6a4.069,4.069,0,0,1,4.056,4.056v7.156a4.211,4.211,0,0,1-4.056,4.218h-7.6a4.211,4.211,0,0,1-4.056-4.218V40.179A4.069,4.069,0,0,1,39.207,36.123Z" transform="translate(-33.52 -34.49)" fill="#373435" fill-rule="evenodd"/>
</svg>
