<svg data-name="Group 2407" xmlns="http://www.w3.org/2000/svg" width="20.284" height="20.122"><path data-name="Path 154" d="M17.17 6.924a7.004 7.004 0 00-14.008 0H-.001l2.074 12.5a.841.841 0 00.825.7h14.531a.834.834 0 00.825-.7l2.03-12.5zm-7.006-5.248A5.332 5.332 0 0115.49 6.92H4.838a5.332 5.332 0 015.326-5.245zm6.558 16.771H3.61L1.935 8.6h16.459z" fill="#f5a81b"/><path data-name="Path 155" d="M6.67 12.266h6.985a.838.838 0 100-1.675H6.67a.838.838 0 100 1.675z" fill="#f5a81b"/><path data-name="Path 156" d="M6.67 16.456h6.985a.838.838 0 000-1.675H6.67a.838.838 0 000 1.675z" fill="#f5a81b"/></svg>