<svg data-name="Component 22 – 4" xmlns="http://www.w3.org/2000/svg" width="36.141" height="26.909"><g data-name="Icon 4" fill="#f5a81b"><path data-name="Path 154" d="M22.109 9.915a9.019 9.019 0 00-18.036 0C.014 9.915.001 9.91.001 9.91l2.671 16.1a1.083 1.083 0 001.063.9h18.707a1.074 1.074 0 001.063-.9l2.614-16.1zm-9.021-6.758a6.866 6.866 0 016.863 6.753H6.23a6.866 6.866 0 016.858-6.753zm8.444 21.594H4.651l-2.157-12.68h21.191z"/><path data-name="Path 155" d="M8.588 16.794h8.994a1.079 1.079 0 100-2.157H8.588a1.079 1.079 0 100 2.157z"/><path data-name="Path 156" d="M8.588 22.187h8.994a1.079 1.079 0 000-2.157H8.588a1.079 1.079 0 000 2.157z"/></g><g data-name="Товары в корзине" transform="translate(-1398.859 -93)"><circle data-name="Ellipse 22" cx="4.5" cy="4.5" r="4.5" transform="translate(1426 93)" fill="#f5a81b"/><path data-name="Path 157" d="M1428.92 97.445h-.834v-.472h.834v-.841h.472v.841h.834v.472h-.834v.83h-.472zm3.832-1.129a.742.742 0 01-.179.5.927.927 0 01-.5.285v.015a1 1 0 01.578.232.649.649 0 01.2.5.842.842 0 01-.33.708 1.52 1.52 0 01-.942.253 2.287 2.287 0 01-.91-.17v-.569a2.056 2.056 0 00.4.151 1.7 1.7 0 00.435.058.847.847 0 00.487-.112.411.411 0 00.157-.36.325.325 0 00-.181-.315 1.339 1.339 0 00-.578-.093h-.241v-.51h.244a1.133 1.133 0 00.536-.1.346.346 0 00.172-.325q0-.358-.448-.358a1.026 1.026 0 00-.316.052 1.542 1.542 0 00-.357.179l-.311-.459a1.713 1.713 0 011.032-.31 1.328 1.328 0 01.773.2.636.636 0 01.279.548z" fill="#fff"/></g></svg>