<svg data-name="Icon 1" xmlns="http://www.w3.org/2000/svg" width="26.909" height="26.909"><g data-name="Group 2433"><g data-name="Group 2432" fill="#f5a81b"><path data-name="Path 166" d="M6.307 10.669H4.23a9.252 9.252 0 0117.9-2.526 1.051 1.051 0 101.97-.729 11.353 11.353 0 00-22 3.82 4.206 4.206 0 00-2.1 3.64v3.574a4.209 4.209 0 004.2 4.2h2.1A1.051 1.051 0 007.358 21.6v-9.88a1.051 1.051 0 00-1.051-1.051zM5.256 20.55H4.2a2.1 2.1 0 01-2.1-2.1v-3.576a2.1 2.1 0 012.1-2.1h1.056z"/><path data-name="Path 167" d="M22.704 10.669h-2.1a1.051 1.051 0 00-1.051 1.051v10.984a1.052 1.052 0 01-1.051 1.051h-3.206v.033a2.1 2.1 0 100 2.036v.033h3.206a3.157 3.157 0 003.153-3.153v-.053h1.051a4.209 4.209 0 004.2-4.2v-3.582a4.209 4.209 0 00-4.202-4.2zm2.1 7.778a2.1 2.1 0 01-2.1 2.1h-1.052v-7.778h1.051a2.1 2.1 0 012.1 2.1z"/></g></g></svg>