<svg data-name="Group 2297" xmlns="http://www.w3.org/2000/svg" width="28.139" height="36.354"><path data-name="Path 131" d="M25.451 17.2l-5.144-5.145V3.2a3.2 3.2 0 00-3.2-3.2H3.195a3.2 3.2 0 00-3.2 3.2v29.963a3.2 3.2 0 003.2 3.2h21.727a1.065 1.065 0 001.044-.855l1.985-9.88a9.278 9.278 0 00-2.5-8.418zM3.195 2.13h13.918a1.066 1.066 0 011.065 1.065v13.738a3.337 3.337 0 00-4.711 4.728l4.08 4.241a9.045 9.045 0 00-2.853 3.707H2.13V3.2a1.066 1.066 0 011.065-1.065zM2.13 33.159v-1.42h11.874a15.193 15.193 0 00-.341 2.485H3.195a1.066 1.066 0 01-1.065-1.065zm23.732-7.96l-1.813 9.025h-8.252a9.772 9.772 0 011.906-5.526 5.4 5.4 0 011.917-1.572 1.054 1.054 0 00.388-1.734l-5.029-5.229a1.207 1.207 0 011.7-1.71c2.251 2.3 1.157 1.2 5.1 5.138a1.065 1.065 0 001.506-1.506l-2.98-2.98v-4.036l3.638 3.639A7.152 7.152 0 0125.86 25.2zm0 0" fill="#8c97ac"/></svg>