<svg xmlns="http://www.w3.org/2000/svg" width="36" height="36"><g data-name="Group 2451"><g transform="rotate(90 18 18)" fill="none" stroke="#ccc" stroke-miterlimit="10"><rect width="36" height="36" rx="18" stroke="none"/><rect x=".5" y=".5" width="35" height="35" rx="17.5"/></g><g data-name="Border" transform="rotate(90 14 18)" fill="none" stroke="#ccc" stroke-miterlimit="10"><rect width="28" height="28" rx="14" stroke="none"/><rect x=".5" y=".5" width="27" height="27" rx="13.5"/></g><g data-name="Border" transform="rotate(90 14 18)" fill="none" stroke="#a4a4a4" stroke-miterlimit="10"><rect width="28" height="28" rx="14" stroke="none"/><rect x=".5" y=".5" width="27" height="27" rx="13.5"/></g><path d="M19.106 13.231a.838.838 0 011.155 0 .768.768 0 010 1.114L16.471 18l3.79 3.655a.768.768 0 010 1.114.838.838 0 01-1.155 0l-4.367-4.212a.768.768 0 010-1.114z"/><path data-name="Arrow" d="M19.106 13.231a.838.838 0 011.155 0 .768.768 0 010 1.114L16.471 18l3.79 3.655a.768.768 0 010 1.114.838.838 0 01-1.155 0l-4.367-4.212a.768.768 0 010-1.114z" fill="#373435"/></g></svg>