<svg xmlns="http://www.w3.org/2000/svg" width="14.538" height="13.881"><path data-name="Path 164" d="M14.518 5.246a.406.406 0 00-.325-.275l-4.536-.645-2.041-4.1a.4.4 0 00-.361-.224.4.4 0 00-.361.227L4.88 4.342l-4.536.674a.406.406 0 00-.324.273.4.4 0 00.1.412l3.295 3.188-.761 4.518a.405.405 0 00.4.471.383.383 0 00.188-.048l4.046-2.141 4.061 2.122a.412.412 0 00.185.045.4.4 0 00.4-.4.315.315 0 00-.012-.093l-.785-4.491 3.27-3.208a.4.4 0 00.111-.418zm-4.088 3.2a.4.4 0 00-.113.358L11 12.717l-3.527-1.841a.408.408 0 00-.376 0l-3.515 1.862.659-3.924a.4.4 0 00-.116-.355l-2.852-2.77 3.936-.585a.4.4 0 00.3-.221l1.749-3.572L9.03 4.874a.41.41 0 00.3.221l3.939.561z" fill="#f5a81b"/></svg>