<svg xmlns="http://www.w3.org/2000/svg" width="18.981" height="18.695"><path data-name="Path 8" d="M4.898 0h9.182a4.913 4.913 0 014.9 4.9v8.9a4.912 4.912 0 01-4.9 4.9H4.898a4.912 4.912 0 01-4.9-4.9V4.9a4.912 4.912 0 014.9-4.9zm9.4 3.238a1.1 1.1 0 11-1.1 1.1 1.1 1.1 0 011.096-1.1zm-4.8 1.135a4.975 4.975 0 11-4.975 4.975A4.974 4.974 0 019.49 4.373zm0 1.62a3.355 3.355 0 11-3.355 3.355A3.355 3.355 0 019.49 5.993zm-3.8-4.36h7.6a4.069 4.069 0 014.056 4.056v7.156a4.211 4.211 0 01-4.056 4.218h-7.6a4.211 4.211 0 01-4.056-4.218V5.689a4.069 4.069 0 014.045-4.056z" fill="#373435" fill-rule="evenodd"/></svg>